<svg width="253" height="37" viewBox="0 0 253 37" fill="none" xmlns="http://www.w3.org/2000/svg">
<path d="M16.9062 29.3516C16.5156 29.5234 16.2344 29.4922 16.0625 29.2578C15.8906 29.0234 15.9609 28.7812 16.2734 28.5312C18.0859 27.1875 19.0156 26.0391 19.0625 25.0859C19.1094 24.4453 18.8125 23.6875 18.1719 22.8125C17.5469 21.9375 16.4375 20.7734 14.8438 19.3203C11.6094 16.3828 10.0078 13.9453 10.0391 12.0078C10.0391 10.2266 11.3828 8.5 14.0703 6.82812C14.1641 6.78125 14.5469 6.5625 15.2188 6.17188C15.8906 5.76563 16.375 5.45312 16.6719 5.23438C16.8125 5.10938 16.8672 4.96875 16.8359 4.8125C16.3516 2.67188 15.0078 1.60156 12.8047 1.60156C10.5703 1.60156 8.89844 2.99219 7.78906 5.77344C6.67969 8.53906 6.28906 11.5625 6.61719 14.8438C7.17969 20.5625 9.02344 24.8594 12.1484 27.7344C15.2734 30.5938 18.8438 32.0234 22.8594 32.0234C25.0781 32.0234 27.4062 31.4297 29.8438 30.2422C30.2031 30.0703 30.4688 30.1172 30.6406 30.3828C30.8125 30.6328 30.7344 30.8984 30.4062 31.1797C26.6719 34.1328 22.4062 35.6094 17.6094 35.6094C12.8125 35.6094 8.85156 33.7266 5.72656 29.9609C2.60156 26.1797 0.921875 22.4844 0.6875 18.875C0.359375 13.6562 1.35156 9.23438 3.66406 5.60938C5.97656 1.98437 8.89844 0.171875 12.4297 0.171875C13.8672 0.171875 15.0156 0.539063 15.875 1.27344C16.75 1.99219 17.3516 2.85938 17.6797 3.875C17.7891 4.1875 17.9844 4.25781 18.2656 4.08594C19.6406 3.07031 20.9141 1.95312 22.0859 0.734375C22.6016 0.34375 23.1875 0.328125 23.8438 0.6875C24.5156 1.03125 25.1328 1.34375 25.6953 1.625C26.2109 1.92188 26.8438 2.27344 27.5938 2.67969C28.3438 3.08594 29.1406 3.10937 29.9844 2.75C30.3281 2.57813 30.5859 2.58594 30.7578 2.77344C30.9453 2.94531 30.9375 3.14844 30.7344 3.38281C29.9375 4.16406 29.1953 4.86719 28.5078 5.49219C27.8203 6.10156 27.1484 6.70313 26.4922 7.29688C26.3359 7.45313 26.2344 7.53906 26.1875 7.55469C26.125 7.58594 26.0469 7.60156 25.9531 7.60156C25.8281 7.60156 25.6797 7.54688 25.5078 7.4375C25.3516 7.32812 25.2188 7.24219 25.1094 7.17969C22.4062 5.86719 20.5391 5.21094 19.5078 5.21094C18.7578 5.24219 18 5.5625 17.2344 6.17188C15.9531 7.17188 15.3047 8.15625 15.2891 9.125C15.2422 10.3438 16.2031 11.8047 18.1719 13.5078C22.2656 17.0547 24.4219 19.8828 24.6406 21.9922C24.7969 23.9922 22.2188 26.4453 16.9062 29.3516ZM41.0938 35.4219C40.8594 35.8125 40.5703 35.8125 40.2266 35.4219C38.5078 33.2812 35.8984 31.6719 32.3984 30.5938C32.1172 30.5156 31.9844 30.3906 32 30.2188C32 30.0469 32.0859 29.9219 32.2578 29.8438C33.2578 29.5 33.7578 28.4609 33.7578 26.7266L33.6875 14.7734C33.6875 14.6016 33.6719 14.4688 33.6406 14.375C33.6094 14.2656 33.6172 14.1719 33.6641 14.0938C33.7266 14 33.8359 13.9453 33.9922 13.9297C38.1484 13.5859 41.8438 12.4531 45.0781 10.5312C45.2188 10.4531 45.3438 10.4297 45.4531 10.4609C45.5781 10.4922 45.6484 10.6016 45.6641 10.7891C45.9297 12.4766 46.7578 14.1328 48.1484 15.7578C48.9141 16.6953 49.5469 17.9766 50.0469 19.6016C50.5625 21.2266 50.7656 22.5781 50.6562 23.6562C50.5 24.9219 50.0859 26.0625 49.4141 27.0781C48.7422 28.0781 47.9766 29 47.1172 29.8438C46.1016 30.8438 45.0078 31.6875 43.8359 32.375C42.6641 33.0625 41.75 34.0781 41.0938 35.4219ZM38.5391 14.4688L38.6328 27.9688C38.6328 28.2031 38.7266 28.3672 38.9141 28.4609L43.0625 31.0391C43.4688 31.3047 43.8438 31.2266 44.1875 30.8047C45.6719 29.2109 46.3438 27.2969 46.2031 25.0625C46.1719 23.6719 45.8984 22.4297 45.3828 21.3359C44.8828 20.2422 44.2578 19.2734 43.5078 18.4297C42.2891 17.1953 41.3594 15.6641 40.7188 13.8359C40.6875 13.7578 40.6172 13.6953 40.5078 13.6484C40.3984 13.5859 40.2969 13.5781 40.2031 13.625C39.7344 13.7969 39.2656 13.9453 38.7969 14.0703C38.625 14.1328 38.5391 14.2656 38.5391 14.4688ZM53.0938 3.52344C52.8906 3.30469 52.8828 3.09375 53.0703 2.89062C53.2734 2.6875 53.5234 2.72656 53.8203 3.00781C54.1797 3.44531 54.5469 3.91406 54.9219 4.41406C55.3125 4.91406 55.6406 5.42969 55.9062 5.96094C55.9844 6.11719 56.0938 6.19531 56.2344 6.19531C56.3906 6.19531 56.5078 6.13281 56.5859 6.00781C57.5078 4.44531 58.7891 3.1875 60.4297 2.23438C62.0703 1.26563 63.8438 0.8125 65.75 0.875C66.1094 0.890625 66.2969 1.04687 66.3125 1.34375C66.3281 1.625 66.1406 1.76562 65.75 1.76562C64.75 1.82813 64.6406 2.29688 65.4219 3.17188C65.8125 3.5 66.1953 3.91406 66.5703 4.41406C66.9609 4.91406 67.2891 5.42969 67.5547 5.96094C67.6328 6.11719 67.7422 6.19531 67.8828 6.19531C68.0391 6.19531 68.1562 6.13281 68.2344 6.00781C69.1562 4.44531 70.4375 3.1875 72.0781 2.23438C73.7188 1.26563 75.4922 0.8125 77.3984 0.875C77.7578 0.890625 77.9453 1.04687 77.9609 1.34375C77.9766 1.625 77.7891 1.76562 77.3984 1.76562C75.8516 1.76562 74.6094 2.21094 73.6719 3.10156C72.75 3.99219 72.2891 5.61719 72.2891 7.97656L72.2656 28.2734C72.2656 28.7734 72.3828 29.0938 72.6172 29.2344L74.3047 30.1953C74.6953 30.3359 75.2344 29.9609 75.9219 29.0703C76.0938 28.8359 76.3047 28.7891 76.5547 28.9297C76.8047 29.0547 76.7969 29.2578 76.5312 29.5391C74.8906 31.3672 73.6328 33.1641 72.7578 34.9297C72.5703 35.2578 72.2891 35.2578 71.9141 34.9297C71.1484 33.9453 70.3594 33.1719 69.5469 32.6094C68.7344 32.0312 67.5938 31.5938 66.125 31.2969C65.875 31.2656 65.7422 31.1562 65.7266 30.9688C65.7266 30.7656 65.8125 30.625 65.9844 30.5469C66.375 30.4062 66.7266 30.1484 67.0391 29.7734C67.3672 29.3828 67.5312 28.7422 67.5312 27.8516L67.5078 12.1016C67.5078 9.85156 67.2656 8.07812 66.7812 6.78125C66.2969 5.48438 65.4453 4.24219 64.2266 3.05469C63.6016 2.57031 63 2.47656 62.4219 2.77344C62.2812 2.88281 62.1484 2.99219 62.0234 3.10156C61.1016 3.99219 60.6406 5.61719 60.6406 7.97656L60.6172 28.2734C60.6172 28.7734 60.7344 29.0938 60.9688 29.2344L62.6562 30.1953C63.0469 30.3359 63.5859 29.9609 64.2734 29.0703C64.4453 28.8359 64.6562 28.7891 64.9062 28.9297C65.1562 29.0547 65.1484 29.2578 64.8828 29.5391C63.2422 31.3672 61.9844 33.1641 61.1094 34.9297C60.9219 35.2578 60.6406 35.2578 60.2656 34.9297C59.5 33.9453 58.7109 33.1719 57.8984 32.6094C57.0859 32.0312 55.9453 31.5938 54.4766 31.2969C54.2266 31.2656 54.0938 31.1562 54.0781 30.9688C54.0781 30.7656 54.1641 30.625 54.3359 30.5469C54.7266 30.4062 55.0781 30.1484 55.3906 29.7734C55.7188 29.3828 55.8828 28.7422 55.8828 27.8516L55.8594 12.1016C55.8594 9.85156 55.6172 8.07812 55.1328 6.78125C54.6484 5.48438 53.9688 4.39844 53.0938 3.52344ZM85.1562 35.6562C85.125 35.2812 84.9219 35 84.5469 34.8125C84.1875 34.625 83.8828 34.4375 83.6328 34.25C81.8359 33.0312 80.5625 31.5469 79.8125 29.7969C79.0781 28.0312 78.6641 26.1641 78.5703 24.1953C78.3828 19.7422 79.5859 16.3516 82.1797 14.0234C83.1016 13.1953 84.1641 12.5234 85.3672 12.0078C86.5703 11.4766 87.8047 11.0469 89.0703 10.7188C89.4609 10.6406 89.75 10.8359 89.9375 11.3047L93.3125 19.2266C93.4688 19.6484 93.4141 19.9141 93.1484 20.0234H93.1016L83.4922 23.75C83.3047 23.8438 83.2266 23.9922 83.2578 24.1953C84.0234 27.6641 85.3047 29.8906 87.1016 30.875C88.8984 31.8438 90.6875 31.9844 92.4688 31.2969C92.7812 31.1562 92.9766 31.1797 93.0547 31.3672C93.1484 31.5547 93.0938 31.6953 92.8906 31.7891C91.625 32.4297 90.4141 33.0859 89.2578 33.7578C88.1172 34.4297 87.0938 35.1328 86.1875 35.8672C86.0469 35.9609 85.8359 35.9922 85.5547 35.9609C85.2891 35.9297 85.1562 35.8281 85.1562 35.6562ZM82.9766 22.4141C82.9922 22.5391 83.0469 22.6406 83.1406 22.7188C83.2344 22.7812 83.3516 22.7812 83.4922 22.7188L88.4844 20.8438C88.7188 20.75 88.7891 20.5859 88.6953 20.3516L85.8359 13.3438C85.6953 13 85.4141 12.9531 84.9922 13.2031C84.0859 13.7344 83.4688 14.9453 83.1406 16.8359C82.8125 18.7266 82.7578 20.5859 82.9766 22.4141ZM102.547 35.6797C102.516 35.3047 102.312 35.0234 101.938 34.8359C101.578 34.6484 101.273 34.4609 101.023 34.2734C99.2266 33.0547 97.9531 31.5703 97.2031 29.8203C96.4688 28.0547 96.0547 26.1875 95.9609 24.2188C95.7734 19.7656 96.9766 16.375 99.5703 14.0469C100.492 13.2188 101.555 12.5469 102.758 12.0312C103.961 11.5 105.195 11.0703 106.461 10.7422C106.805 10.6797 107.094 10.875 107.328 11.3281L110.07 16.8594C110.289 17.3125 110.234 17.5703 109.906 17.6328C108.75 17.8047 107.695 18.2109 106.742 18.8516C106.305 19.1328 105.945 18.9922 105.664 18.4297L103.227 13.3672C103.07 13.0391 102.789 12.9922 102.383 13.2266C101.352 13.8359 100.695 15.2891 100.414 17.5859C100.133 19.8828 100.195 21.9922 100.602 23.9141C101.336 27.5234 102.609 29.8359 104.422 30.8516C106.234 31.8672 108.047 32.0234 109.859 31.3203C110.094 31.2109 110.273 31.2266 110.398 31.3672C110.523 31.5703 110.484 31.7188 110.281 31.8125C109.016 32.4531 107.805 33.1094 106.648 33.7812C105.508 34.4531 104.484 35.1562 103.578 35.8906C103.438 35.9844 103.227 36.0156 102.945 35.9844C102.68 35.9531 102.547 35.8516 102.547 35.6797ZM120.57 15.8984L120.547 29.0234C120.547 29.5078 120.664 29.8281 120.898 29.9844L122.586 30.9453C122.914 31.2266 123.461 30.8516 124.227 29.8203C124.367 29.6172 124.555 29.5859 124.789 29.7266C125.039 29.8672 125.055 30.0547 124.836 30.2891C123.164 32.1172 121.906 33.9141 121.062 35.6797C120.797 36.0078 120.508 36.0078 120.195 35.6797C119.32 34.6484 118.508 33.875 117.758 33.3594C117.008 32.8438 115.891 32.4062 114.406 32.0469C114.156 32 114.023 31.8828 114.008 31.6953C113.992 31.5078 114.086 31.375 114.289 31.2969C115.336 31.0469 115.852 30.1484 115.836 28.6016L115.812 15.9219C115.828 15.6406 115.711 15.5 115.461 15.5H112.695C112.477 15.5 112.336 15.4141 112.273 15.2422C112.211 15.0703 112.281 14.9219 112.484 14.7969C114.359 13.4688 116.266 11.8672 118.203 9.99219C120.156 8.11719 121.93 6.33594 123.523 4.64844C123.727 4.42969 123.922 4.39062 124.109 4.53125C124.312 4.65625 124.32 4.84375 124.133 5.09375C123.414 5.98438 122.688 7.14062 121.953 8.5625C121.234 9.98438 120.797 11.2812 120.641 12.4531C120.609 12.6094 120.617 12.7266 120.664 12.8047C120.758 12.8984 120.867 12.9453 120.992 12.9453H125.047C125.156 12.9453 125.25 12.9844 125.328 13.0625C125.406 13.1719 125.445 13.2734 125.445 13.3672L125.352 15.125C125.32 15.375 125.188 15.5 124.953 15.5H120.898C120.68 15.5 120.57 15.6328 120.57 15.8984ZM139.672 22.0391C139.703 21.1641 139.492 20.625 139.039 20.4219C138.602 20.2031 137.664 20.2578 136.227 20.5859C134.008 21.1172 132.023 20.625 130.273 19.1094C128.523 17.5938 127.648 15.3359 127.648 12.3359C127.664 9.35156 128.75 6.77344 130.906 4.60156C133.062 2.42969 135.641 1.34375 138.641 1.34375C140 1.34375 141.477 1.67969 143.07 2.35156C144.664 3.02344 146.023 4.02344 147.148 5.35156C147.242 5.47656 147.344 5.53125 147.453 5.51562C147.562 5.5 147.656 5.42969 147.734 5.30469C148.422 4.17969 149.305 3.23438 150.383 2.46875C151.477 1.70312 152.922 1.34375 154.719 1.39062C157.047 1.5 159.133 2.9375 160.977 5.70312C161.07 5.84375 161.188 5.91406 161.328 5.91406C161.469 5.91406 161.578 5.83594 161.656 5.67969C162.312 4.46094 163.141 3.46094 164.141 2.67969C165.141 1.89844 166.391 1.50781 167.891 1.50781C169.812 1.53906 171.398 2.125 172.648 3.26562C173.898 4.40625 174.805 6.32031 175.367 9.00781C175.711 10.8672 176.43 11.8516 177.523 11.9609C177.836 11.9766 178 12.1094 178.016 12.3594C178.047 12.6094 177.859 12.7969 177.453 12.9219C174.422 13.9531 172.336 15.6094 171.195 17.8906C170.055 20.1562 170.102 23.0469 171.336 26.5625C171.883 28.1562 172.664 29.2812 173.68 29.9375C174.711 30.5781 175.836 30.5234 177.055 29.7734C177.508 29.5078 177.844 29.5156 178.062 29.7969C178.297 30.0625 178.258 30.3281 177.945 30.5938C176.883 31.4375 175.828 32.2812 174.781 33.125C173.75 33.9531 172.711 34.7812 171.664 35.6094C171.492 35.7344 171.328 35.7344 171.172 35.6094C167.844 32.9375 165.836 29.9688 165.148 26.7031C164.477 23.4375 166.633 19.5703 171.617 15.1016C171.727 14.9922 171.773 14.8828 171.758 14.7734C171.758 14.6641 171.688 14.5703 171.547 14.4922C170.453 13.7578 169.648 11.875 169.133 8.84375C168.586 5.84375 167.367 4.32812 165.477 4.29688C164.133 4.26563 162.992 5.25 162.055 7.25C161.992 7.35938 161.992 7.46875 162.055 7.57812C162.664 8.875 163.102 10.3203 163.367 11.9141C163.648 13.5078 163.664 15.1953 163.414 16.9766C162.789 21.2891 161.859 24.5469 160.625 26.75C159.406 28.9375 157.953 31.125 156.266 33.3125C154.031 36.1094 151.922 36.4141 149.938 34.2266C149.375 33.6016 148.781 33.1953 148.156 33.0078C147.547 32.8203 146.844 33.0391 146.047 33.6641C145.75 33.9141 145.492 33.9453 145.273 33.7578C145.07 33.5547 145.086 33.3047 145.32 33.0078C147.32 30.2266 148.906 28.6406 150.078 28.25C151.266 27.8594 152.422 28.1875 153.547 29.2344C154.469 30.0938 155.312 30.5547 156.078 30.6172C156.859 30.6797 157.469 30.1016 157.906 28.8828C158.75 26.5391 159.047 23.2656 158.797 19.0625C158.562 14.8438 157.711 11.6094 156.242 9.35938C154.789 7.10938 153.398 5.78906 152.07 5.39844C150.758 4.99219 149.562 5.33594 148.484 6.42969C148.328 6.58594 148.32 6.75 148.461 6.92188C150.32 9.5 151.32 12.4844 151.461 15.875C151.555 18.6562 151.016 21.3281 149.844 23.8906C148.672 26.4375 147.164 28.8828 145.32 31.2266C143.305 33.7891 141.391 35.2578 139.578 35.6328C137.781 36.0078 136.133 35.0938 134.633 32.8906C133.32 30.9219 131.984 30.6797 130.625 32.1641C130.297 32.4453 130 32.4531 129.734 32.1875C129.484 31.9219 129.523 31.6172 129.852 31.2734C134.117 26.9297 137.469 26.3594 139.906 29.5625C140.297 30.0938 140.664 30.5859 141.008 31.0391C141.367 31.4922 141.898 31.7031 142.602 31.6719C143.508 31.6406 144.461 30.6484 145.461 28.6953C146.461 26.7422 146.961 24.2812 146.961 21.3125C146.93 17.4219 145.914 14.0156 143.914 11.0938C141.914 8.15625 139.625 6.54688 137.047 6.26562C134.469 6 132.438 6.48437 130.953 7.71875C129.469 8.95313 128.75 10.4141 128.797 12.1016C128.844 13.8203 129.297 15.1953 130.156 16.2266C131.031 17.2578 132.641 17.4688 134.984 16.8594C139.5 15.7031 141.461 17.3672 140.867 21.8516C140.805 22.3203 140.586 22.5625 140.211 22.5781C139.852 22.5781 139.672 22.3984 139.672 22.0391ZM187.531 35.6562C187.5 35.2812 187.297 35 186.922 34.8125C186.562 34.625 186.258 34.4375 186.008 34.25C184.211 33.0312 182.938 31.5469 182.188 29.7969C181.453 28.0312 181.039 26.1641 180.945 24.1953C180.758 19.7422 181.961 16.3516 184.555 14.0234C185.477 13.1953 186.539 12.5234 187.742 12.0078C188.945 11.4766 190.18 11.0469 191.445 10.7188C191.836 10.6406 192.125 10.8359 192.312 11.3047L195.688 19.2266C195.844 19.6484 195.789 19.9141 195.523 20.0234H195.477L185.867 23.75C185.68 23.8438 185.602 23.9922 185.633 24.1953C186.398 27.6641 187.68 29.8906 189.477 30.875C191.273 31.8438 193.062 31.9844 194.844 31.2969C195.156 31.1562 195.352 31.1797 195.43 31.3672C195.523 31.5547 195.469 31.6953 195.266 31.7891C194 32.4297 192.789 33.0859 191.633 33.7578C190.492 34.4297 189.469 35.1328 188.562 35.8672C188.422 35.9609 188.211 35.9922 187.93 35.9609C187.664 35.9297 187.531 35.8281 187.531 35.6562ZM185.352 22.4141C185.367 22.5391 185.422 22.6406 185.516 22.7188C185.609 22.7812 185.727 22.7812 185.867 22.7188L190.859 20.8438C191.094 20.75 191.164 20.5859 191.07 20.3516L188.211 13.3438C188.07 13 187.789 12.9531 187.367 13.2031C186.461 13.7344 185.844 14.9453 185.516 16.8359C185.188 18.7266 185.133 20.5859 185.352 22.4141ZM203 2.35156C201.766 2.69531 201.164 3.42188 201.195 4.53125C201.211 5.23438 201.609 5.89062 202.391 6.5C203.188 7.09375 204.117 7.49219 205.18 7.69531C205.195 7.69531 205.211 7.70312 205.227 7.71875C208.508 8.9375 211.359 10.5312 213.781 12.5C216.219 14.4688 217.602 17.3281 217.93 21.0781V21.1484C217.602 23.9609 216.922 26.3047 215.891 28.1797C214.859 30.0547 213.641 31.4844 212.234 32.4688L212.211 32.5156C211.555 33.0781 210.781 33.5781 209.891 34.0156C209 34.4531 208.211 34.9062 207.523 35.375C207.086 35.6719 206.805 35.6719 206.68 35.375C205.805 33.2969 203.391 31.7109 199.438 30.6172C199.203 30.5703 199.078 30.4531 199.062 30.2656C199.047 30.0781 199.133 29.9453 199.32 29.8672C200.305 29.4922 200.797 28.4531 200.797 26.75L200.75 17C200.75 16.4531 201 16.1953 201.5 16.2266C203.062 16.4297 204.625 15.8984 206.188 14.6328C206.281 14.5703 206.328 14.4531 206.328 14.2812C206.297 14.1562 206.219 14.0625 206.094 14C205.5 13.75 204.906 13.5078 204.312 13.2734C203.719 13.0234 203.141 12.7578 202.578 12.4766C201.125 11.8203 200.047 10.9688 199.344 9.92188C198.656 8.875 198.25 7.83594 198.125 6.80469V6.6875C198.516 3.70313 200.016 2.03906 202.625 1.69531C203.031 1.63281 203.25 1.71094 203.281 1.92969C203.328 2.14844 203.234 2.28906 203 2.35156ZM207.57 14.6562C207.43 14.5938 207.297 14.6094 207.172 14.7031L206.07 15.5703C205.758 15.8047 205.602 16.0859 205.602 16.4141L205.695 27.9922C205.695 28.2266 205.789 28.3906 205.977 28.4844L211.039 31.4609C211.445 31.7109 211.82 31.6172 212.164 31.1797C213.57 29.1953 214.109 26.5625 213.781 23.2812C213.469 19.9844 212.117 17.4922 209.727 15.8047C209.289 15.5078 208.57 15.125 207.57 14.6562ZM222.617 29.4922L222.453 16.6484C222.453 16.3516 222.406 16.1094 222.312 15.9219C221.938 15.3125 221.617 15.1641 221.352 15.4766L220.414 16.4375C220.164 16.7188 219.922 16.75 219.688 16.5312C219.469 16.3125 219.508 16.0078 219.805 15.6172C220.492 14.7578 221.109 13.8984 221.656 13.0391C222.203 12.1797 222.766 11.3281 223.344 10.4844C223.594 10.1875 223.883 10.1953 224.211 10.5078C224.867 11.3047 225.508 12.0078 226.133 12.6172C226.758 13.2109 227.648 13.8438 228.805 14.5156C229.133 14.6406 229.273 14.7891 229.227 14.9609C229.195 15.1328 229.094 15.2266 228.922 15.2422C228.516 15.3984 228.156 15.6719 227.844 16.0625C227.531 16.4375 227.375 17.0703 227.375 17.9609V27.875C227.375 29.4688 227.672 30.4453 228.266 30.8047C228.953 31.2109 229.516 31.0391 229.953 30.2891C230.109 29.9922 230.297 29.9297 230.516 30.1016C230.75 30.2578 230.75 30.5234 230.516 30.8984C230.047 31.6328 229.609 32.375 229.203 33.125C228.797 33.8594 228.383 34.5938 227.961 35.3281C227.664 35.7656 227.297 35.8594 226.859 35.6094C225.453 34.9375 224.391 34.1172 223.672 33.1484C222.969 32.1797 222.617 30.9609 222.617 29.4922ZM226.016 1.67188C227.75 1.67188 228.539 2.50781 228.383 4.17969C228.289 5.02344 227.758 5.875 226.789 6.73438C225.836 7.57812 225.078 7.99219 224.516 7.97656C223.953 7.97656 223.523 7.53125 223.227 6.64062C222.93 5.75 222.812 4.92969 222.875 4.17969C222.922 3.46094 223.266 2.86719 223.906 2.39844C224.562 1.91406 225.266 1.67188 226.016 1.67188ZM244.391 31.6953C243.594 32.3047 242.719 32.9766 241.766 33.7109C240.812 34.4297 239.93 35.0938 239.117 35.7031C238.836 35.9219 238.609 36.0156 238.438 35.9844C238.281 35.9531 238.219 35.8125 238.25 35.5625C238.25 35.2344 237.766 34.6094 236.797 33.6875C234.25 31.2969 233.023 28.1875 233.117 24.3594C233.211 21.0781 234.734 18.3047 237.688 16.0391C238.594 15.3516 239.438 14.625 240.219 13.8594C241.016 13.0938 241.719 12.1641 242.328 11.0703C242.578 10.5859 242.922 10.5703 243.359 11.0234C245.734 13.7109 248.109 15.2969 250.484 15.7812C251.234 15.9219 251.312 16.2188 250.719 16.6719C249.984 17.2031 249.586 17.8594 249.523 18.6406V18.6875L249.594 29.3984C249.594 30.1172 249.852 30.6094 250.367 30.875C250.898 31.1406 251.469 30.9375 252.078 30.2656C252.312 30 252.531 29.9375 252.734 30.0781C252.953 30.2031 252.961 30.4375 252.758 30.7812C252.195 31.625 251.648 32.4531 251.117 33.2656C250.602 34.0781 250.164 34.9219 249.805 35.7969L249.781 35.8203C249.562 36.1797 249.297 36.1797 248.984 35.8203C248.812 35.6328 248.609 35.5078 248.375 35.4453C246.594 35.0547 245.469 33.875 245 31.9062C244.969 31.8125 244.891 31.7188 244.766 31.625C244.625 31.6094 244.5 31.6328 244.391 31.6953ZM244.648 17.8906C243.68 17.625 242.547 16.875 241.25 15.6406C240.625 14.8906 240.125 14.8203 239.75 15.4297C238.094 17.8984 237.445 20.625 237.805 23.6094C238.305 27.875 239.805 30.5078 242.305 31.5078C242.32 31.5078 242.336 31.5156 242.352 31.5312C242.992 31.7344 243.766 31.3516 244.672 30.3828C244.734 30.2891 244.766 30.2031 244.766 30.125C244.75 29.8906 244.742 29.5234 244.742 29.0234L244.953 18.2656C244.953 18.0781 244.852 17.9531 244.648 17.8906Z" fill="#EEF9FF"/>
</svg>
