<svg width="24" height="24" viewBox="0 0 24 24" fill="none" xmlns="http://www.w3.org/2000/svg">
<path d="M12 0C5.37284 0 0 5.37284 0 12C0 18.6272 5.37284 24 12 24C18.6272 24 24 18.6272 24 12C24 5.37284 18.6272 0 12 0ZM16.1877 18.079C15.8272 18.242 15.4519 18.3802 15.0667 18.4839C13.6049 18.8889 12.1432 18.9037 10.6864 18.4296C8.9284 17.8617 7.76296 16.6617 7.06667 14.9827C6.93333 14.6568 6.84444 14.316 6.74074 13.9753H5.36296C5.13086 13.9753 4.94815 13.7877 4.94815 13.5605V12.6321C4.94815 12.4 5.1358 12.2173 5.36296 12.2173H6.5037C6.5037 11.9605 6.5037 11.7185 6.5037 11.4617H5.36296C5.13086 11.4617 4.94815 11.2741 4.94815 11.0469V10.1185C4.94815 9.88642 5.1358 9.7037 5.36296 9.7037H6.81482L6.8642 9.56049C7.25432 8.32099 7.92593 7.25926 8.95802 6.45926C9.77778 5.82222 10.7259 5.4716 11.7432 5.30864C13.1901 5.07654 14.5926 5.27407 15.9506 5.80741C16.0395 5.84198 16.1235 5.88148 16.2074 5.93086C16.5333 6.12346 16.6173 6.36543 16.4741 6.71605C16.321 7.08148 16.1679 7.45185 16 7.81235C15.8568 8.12346 15.6593 8.22222 15.3235 8.14815C14.8642 8.04444 14.4148 7.90124 13.9556 7.80741C12.9877 7.60988 12.0247 7.6 11.0815 7.97037C10.2716 8.29136 9.77778 8.90864 9.44198 9.67901C9.43704 9.68889 9.43704 9.69877 9.43704 9.70864H12.2568C12.4889 9.70864 12.6716 9.8963 12.6716 10.1235V11.0519C12.6716 11.284 12.484 11.4667 12.2568 11.4667H9.03704C9.0321 11.7136 9.03704 11.9605 9.03704 12.2222H12.2617C12.4938 12.2222 12.6765 12.4099 12.6765 12.637V13.5654C12.6765 13.7975 12.4889 13.9802 12.2617 13.9802H9.31852C9.67407 14.9975 10.2519 15.7827 11.3383 16.1235C12.2074 16.3951 13.0815 16.3802 13.9605 16.1975C14.4148 16.1037 14.8593 15.9654 15.3136 15.8617C15.6691 15.7827 15.8617 15.8765 16.0099 16.2025C16.1778 16.5679 16.3358 16.9383 16.4839 17.3136C16.6222 17.6494 16.5333 17.921 16.1877 18.079Z" fill="#011116"/>
</svg>
